<?xml version="1.0" encoding="UTF-8"?>
<svg id="Layer_2" xmlns="http://www.w3.org/2000/svg" viewBox="0 0 653.18 128.23">
  <defs>
    <style>
      .cls-1 {
        fill: none;
      }

      .cls-2 {
        fill: #83b200;
      }

      .cls-3 {
        fill: #00b3f2;
      }

      .cls-4 {
        fill: #ffb900;
      }

      .cls-5 {
        fill: #ff3000;
      }
    </style>
  </defs>
  <g id="Layer_1-2" data-name="Layer_1">
    <g>
      <polygon class="cls-1" points="609.51 64.37 621.11 64.37 623.65 64.37 621.09 61.4 609.51 61.4 609.51 64.37"/>
      <polygon class="cls-1" points="609.51 64.37 609.51 61.4 597.94 61.4 595.35 61.4 597.92 64.37 597.92 64.37 609.51 64.37"/>
      <polygon class="cls-5" points="596.92 64.37 607.88 77.01 596.92 64.37 594.37 64.37 565.85 97.27 591.58 97.27 608.51 77.74 608.51 64.37 596.92 64.37"/>
      <polygon class="cls-4" points="624.65 64.37 622.11 64.37 610.51 64.37 610.51 77.74 627.44 97.27 653.18 97.27 624.65 64.37"/>
      <polygon class="cls-3" points="591.58 29.52 565.85 29.52 594.35 62.4 596.94 62.4 608.51 62.4 608.51 49.05 591.58 29.52"/>
      <polygon class="cls-2" points="627.44 29.52 610.51 49.05 610.51 62.4 622.09 62.4 624.68 62.4 653.18 29.52 627.44 29.52"/>
    </g>
    <g>
      <path class="cls-1" d="M507.99,66.18c.01-.12.03-.24.04-.36l-.09.05.05.31Z"/>
      <path class="cls-1" d="M155.95,52.76c-.86-2.03-2.15-3.94-3.88-5.74-1.42-1.6-3.34-2.86-5.77-3.75-2.43-.9-5.37-1.49-8.81-1.77-.1,0-.23.02-.38.07-.15.05-.33.07-.53.07-.3,0-.58.02-.84.07-.25.05-.58.12-.99.21-.91.09-1.82.28-2.73.57-.91.28-1.82.66-2.74,1.13-1.62.66-3.19,1.58-4.71,2.76-1.52,1.18-2.99,2.58-4.41,4.18-1.32,1.51-2.38,3.38-3.19,5.6-.81,2.22-1.32,4.75-1.52,7.58,0,3.78.56,7.06,1.67,9.85,1.11,2.79,2.79,5.12,5.01,7.01,2.33,1.8,4.74,3.24,7.22,4.32,2.48,1.09,5.09,1.77,7.83,2.05.71-.09,1.37-.21,1.98-.35.61-.14,1.22-.31,1.82-.5.51-.19.99-.38,1.44-.57.46-.19.94-.38,1.44-.57.4-.28.86-.57,1.37-.85.51-.28.96-.61,1.37-.99.51-.28.99-.64,1.44-1.06.46-.43.94-.83,1.44-1.21.51-.47,1.01-.92,1.52-1.35.49-.41.97-.84,1.46-1.29v-.94h4.77v-18.39c0-2.08-.43-4.13-1.29-6.16Z"/>
      <path class="cls-1" d="M513.52,60.88l.73,1.4,24.85-14.11c-.19-.09-.38-.21-.57-.35-.19-.14-.38-.35-.57-.64-.19-.19-.4-.42-.64-.71-.24-.28-.5-.57-.78-.85-.28-.19-.59-.4-.92-.64-.33-.23-.64-.5-.92-.78-.38-.19-.76-.4-1.13-.64-.38-.23-.8-.45-1.28-.64-.66-.28-1.37-.52-2.13-.71-.76-.19-1.61-.33-2.55-.42-3.02.28-5.69,1.09-8.01,2.41-2.32,1.32-4.32,3.07-6.02,5.24-1.89,2.55-3.31,5.24-4.25,8.08-.9,2.69-1.35,5.48-1.4,8.34l.09-.05c.26-2.23,1.1-3.83,2.42-4.2.96-.26,2.02.16,3.06,1.08l.73-.42-.73-1.4Z"/>
      <path d="M82.11,58.59c-2.22-1.65-5.12-2.88-8.71-3.68-3.59-.8-8.03-1.25-13.32-1.35l-30.75-.57c-3.5-.09-5.76-.45-6.8-1.06-1.04-.61-1.56-1.72-1.56-3.33s.59-2.86,1.77-3.75c1.18-.9,3.42-1.35,6.73-1.35h24.51c7.84,0,11.76,1.84,11.76,5.53h22.1c0-4.16-.59-7.6-1.77-10.34-1.18-2.74-2.93-4.89-5.24-6.45-2.32-1.56-5.24-2.64-8.79-3.26-3.54-.61-7.68-.92-12.4-.92h-31.74c-5.29,0-9.71.47-13.25,1.42-3.54.95-6.4,2.34-8.57,4.18-2.17,1.84-3.71,4.06-4.61,6.66-.9,2.6-1.35,5.55-1.35,8.86v3.4c0,3.59.54,6.57,1.63,8.93,1.08,2.36,2.64,4.28,4.68,5.74,2.03,1.47,4.53,2.5,7.51,3.12,2.98.62,6.35.97,10.13,1.06l31.6.57c3.68.1,6.14.64,7.37,1.63,1.23.99,1.84,2.29,1.84,3.9,0,1.8-.64,3.19-1.91,4.18-1.28.99-3.71,1.49-7.3,1.49h-26.07c-1.89,0-3.4-.16-4.53-.5-1.13-.33-2.03-.78-2.69-1.35-.66-.57-1.09-1.18-1.28-1.84-.19-.66-.28-1.32-.28-1.98H0c0,4.16.64,7.58,1.91,10.27,1.28,2.69,3.07,4.84,5.38,6.45,2.31,1.61,5.12,2.72,8.43,3.33,3.3.62,6.94.92,10.91.92h33.44c9.26,0,16.27-1.79,21.04-5.38,4.77-3.59,7.16-8.93,7.16-16.01v-3.68c0-3.4-.47-6.31-1.42-8.71-.95-2.41-2.53-4.44-4.75-6.09Z"/>
      <path d="M168.19,38.23c-3.14-3.02-7.04-5.29-11.7-6.8-4.66-1.51-9.98-2.31-15.96-2.41l-6.08.14c-6.28,0-11.8.85-16.56,2.55-4.76,1.7-8.76,4.25-12.01,7.65-3.24,3.4-5.67,7.13-7.29,11.19-1.62,4.06-2.43,8.46-2.43,13.18,0,5.38.84,10.23,2.51,14.52,1.67,4.3,4.18,8.1,7.52,11.41,3.34,3.21,7.01,5.6,11.02,7.16,4,1.56,8.33,2.34,12.99,2.34h8.05c2.63,0,4.96-.12,6.99-.35,2.03-.24,3.75-.54,5.17-.92.7-.23,1.39-.48,2.07-.75v-18.89c-.49.45-.97.88-1.46,1.29-.51.42-1.01.87-1.52,1.35-.51.38-.99.78-1.44,1.21-.46.42-.94.78-1.44,1.06-.41.38-.86.71-1.37.99-.51.28-.96.57-1.37.85-.51.19-.99.38-1.44.57-.46.19-.94.38-1.44.57-.61.19-1.22.35-1.82.5-.61.14-1.27.26-1.98.35-2.74-.28-5.34-.97-7.83-2.05-2.48-1.08-4.89-2.53-7.22-4.32-2.23-1.89-3.9-4.23-5.01-7.01-1.12-2.79-1.67-6.07-1.67-9.85.2-2.83.71-5.36,1.52-7.58.81-2.22,1.87-4.08,3.19-5.6,1.42-1.61,2.89-3,4.41-4.18,1.52-1.18,3.09-2.1,4.71-2.76.91-.47,1.82-.85,2.74-1.13.91-.28,1.82-.47,2.73-.57.4-.09.73-.16.99-.21.25-.05.53-.07.84-.07.2,0,.38-.02.53-.07.15-.05.28-.07.38-.07,3.44.28,6.38.87,8.81,1.77,2.43.9,4.35,2.15,5.77,3.75,1.72,1.8,3.01,3.71,3.88,5.74.86,2.03,1.29,4.09,1.29,6.16v19.16l1.37-.03v15.59l-.3.28v.14c-.35.24-.71.45-1.06.68v3.29h20.52v-39.82c0-3.59-.79-7.06-2.36-10.42-1.57-3.35-3.98-6.54-7.22-9.56Z"/>
      <path d="M158.31,93.92l.3-.28v-15.59l-1.37.03v16.66c.36-.22.72-.44,1.06-.68v-.14Z"/>
      <path d="M277.1,36.29c-2.88-2.69-6.64-4.69-11.26-6.01-4.63-1.32-10.34-1.98-17.14-1.98h-16.58c-3.31,0-6.09.28-8.36.85-2.27.57-4.21,1.32-5.81,2.26-1.61.94-2.91,2.03-3.9,3.25-.99,1.23-1.87,2.45-2.62,3.68V0h-23.38v98.34h23.66v-34.43c0-6.24,1.58-11,4.75-14.31,3.16-3.31,7.72-4.96,13.67-4.96h11.48c3.87,0,7.08.33,9.63.99,2.55.66,4.58,1.7,6.09,3.12,1.51,1.42,2.57,3.21,3.19,5.38.61,2.17.92,4.77.92,7.79v36.42h23.66v-38.06c0-5.28-.62-9.93-1.84-13.94-1.23-4.01-3.28-7.36-6.16-10.04Z"/>
      <path d="M334.65,77.22l-23.66-48.88h-22.67l32.73,70c-.85,1.89-1.87,3.4-3.05,4.53-1.18,1.13-2.6,2.01-4.25,2.62-1.65.61-3.59,1.04-5.81,1.28-2.22.24-4.79.35-7.72.35v21.11c7.27,0,13.41-.62,18.42-1.84,5.01-1.23,9.28-3.07,12.82-5.53,3.54-2.46,6.59-5.55,9.14-9.28,2.55-3.73,5.01-8.15,7.37-13.25l33.01-70h-22.67l-23.66,48.88Z"/>
      <path d="M443.75,28.34h-7.37c-4.25,0-7.77.31-10.56.92-2.79.62-5.08,1.42-6.87,2.41-1.8.99-3.19,2.1-4.18,3.33-.99,1.23-1.82,2.41-2.48,3.54v-10.2h-23.38v70h23.8v-34.29c0-6.04,1.7-10.77,5.1-14.17,3.4-3.4,8.45-5.1,15.16-5.1h3.4c7.37,0,12.61,1.65,15.73,4.96,3.12,3.31,4.68,8.08,4.68,14.31v34.29h23.52v-38.12c0-10.58-2.83-18.54-8.5-23.88-5.67-5.33-15.02-8-28.06-8Z"/>
      <path d="M507.92,66.46v.14c0,.23.02.46.02.69"/>
      <path d="M565.03,70.21v-1.2c-.1-.09-.14-.21-.14-.35v-.5l-12.33-.85h-5.67l-.14.28v.28c-.85,3.21-1.82,6.09-2.91,8.64-1.09,2.55-2.29,4.77-3.61,6.66-1.13,1.51-2.74,2.72-4.82,3.61-2.08.9-4.63,1.44-7.65,1.63-6.01-.38-6.17-.65-8.94-1.98-2.36-1.13-3.39-2.69-5.09-4.68-1.01-1.22-1.87-2.47-2.62-3.76-.96-1.42-1.8-3.26-2.39-5.34l-3.06-5.5,2.28-1.3c.04-2.86.5-5.65,1.4-8.34.94-2.83,2.36-5.53,4.25-8.08,1.7-2.17,3.71-3.92,6.02-5.24,2.31-1.32,4.98-2.12,8.01-2.41.94.09,1.79.24,2.55.42.75.19,1.46.42,2.13.71.47.19.9.4,1.28.64.38.24.75.45,1.13.64.28.28.59.54.92.78.33.24.64.45.92.64.28.28.54.57.78.85.23.28.45.52.64.71.19.28.38.5.57.64.19.14.38.26.57.35l-24.85,14.11,6.61,12.63,42.9-23.2c-1.7-3.02-3.66-5.86-5.88-8.5-2.22-2.64-4.7-5.05-7.44-7.23-2.83-2.17-5.93-3.8-9.28-4.89-3.35-1.08-6.97-1.68-10.84-1.77l-5.67.14c-.66,0-1.35.02-2.05.07-.71.05-1.44.12-2.2.21-.38.1-.73.17-1.06.21-.33.05-.69.07-1.06.07-.38.09-.73.17-1.06.21-.33.05-.69.12-1.06.21-3.4.85-6.66,2.22-9.78,4.11-3.12,1.89-6.09,4.3-8.93,7.23-2.83,2.93-4.96,6.42-6.38,10.49-1.42,4.06-2.13,8.74-2.13,14.03,0,5.01.85,9.56,2.55,13.67s4.3,7.82,7.79,11.12c3.4,3.21,7.23,5.6,11.48,7.16,4.25,1.56,8.88,2.34,13.89,2.34h5.67c4.34,0,8.29-.5,11.83-1.49,3.54-.99,6.63-2.48,9.28-4.46,2.74-1.98,5.05-4.11,6.94-6.38,1.89-2.27,3.4-4.58,4.53-6.94.19-.47.35-.92.5-1.35s.31-.87.5-1.35c.09-.38.21-.8.35-1.28.14-.47.26-.9.35-1.28.19-.85.33-1.68.42-2.48.09-.8.14-1.58.14-2.34v-.71c-.09-.09-.14-.21-.14-.35Z"/>
      <path d="M507.95,67.29c0-.23-.02-.46-.02-.69v-.28c0-.15.02-.3.02-.45l-2.28,1.3,3.06,5.5s-.03-.09-.04-.13c-.51-1.86-.74-3.65-.73-5.24Z"/>
      <path d="M508.8,72.8l-.08-.13c.59,2.08,1.43,3.91,2.39,5.34-.65-1.11-1.22-2.25-1.7-3.4"/>
      <path d="M507.95,67.29c0,1.59.22,3.38.73,5.24.01.04.03.09.04.13l.08.13c-.52-1.76-.79-3.6-.85-5.51Z"/>
    </g>
  </g>
</svg>
